<?xml version="1.0" standalone="no"?>
<!DOCTYPE svg PUBLIC "-//W3C//DTD SVG 20010904//EN"
 "http://www.w3.org/TR/2001/REC-SVG-20010904/DTD/svg10.dtd">
<svg version="1.0" xmlns="http://www.w3.org/2000/svg"
 width="688.000000pt" height="688.000000pt" viewBox="0 0 688.000000 688.000000"
 preserveAspectRatio="xMidYMid meet">
<metadata>
Created by potrace 1.14, written by Peter Selinger 2001-2017
</metadata>
<g transform="translate(0.000000,688.000000) scale(0.100000,-0.100000)"
fill="#000000" stroke="none">
<path d="M2817 6514 c-1 -1 -45 -4 -97 -8 -144 -10 -181 -14 -220 -21 -19 -4
-46 -9 -60 -11 -14 -3 -47 -9 -75 -14 -27 -6 -60 -12 -72 -14 -76 -15 -334
-97 -443 -141 -72 -29 -332 -156 -340 -165 -3 -3 -42 -28 -87 -54 -46 -27 -83
-53 -83 -59 0 -6 -3 -8 -6 -4 -3 3 -11 1 -18 -4 -6 -5 -51 -39 -101 -76 -49
-37 -95 -72 -101 -77 -6 -6 -30 -27 -54 -46 -55 -44 -254 -242 -300 -299 -19
-23 -46 -55 -60 -71 -29 -31 -96 -125 -160 -220 -25 -36 -49 -68 -55 -72 -5
-4 -7 -8 -3 -8 4 0 -8 -25 -27 -55 -57 -88 -210 -408 -219 -459 -1 -6 -10 -29
-19 -50 -10 -22 -15 -41 -13 -44 3 -2 -1 -16 -8 -31 -22 -43 -90 -323 -102
-416 -2 -16 -6 -41 -9 -55 -3 -14 -7 -56 -10 -95 -3 -38 -8 -90 -10 -115 -6
-58 -6 -309 0 -380 11 -145 16 -183 30 -265 3 -16 8 -43 10 -60 18 -130 100
-411 169 -578 46 -111 138 -296 182 -365 19 -29 34 -55 34 -58 0 -3 11 -20 25
-38 14 -18 25 -36 25 -40 0 -4 6 -14 13 -21 27 -31 37 -44 37 -51 0 -4 44 -61
98 -128 97 -120 273 -304 367 -383 28 -23 61 -51 75 -63 29 -26 258 -190 265
-190 2 0 24 -13 48 -30 74 -49 358 -192 397 -198 3 -1 30 -12 60 -25 47 -21
189 -69 240 -82 8 -3 48 -13 89 -24 41 -11 78 -18 82 -15 4 2 10 0 14 -5 3 -5
13 -10 23 -9 9 0 27 -2 38 -5 12 -3 37 -8 55 -11 19 -3 44 -8 57 -10 23 -5 81
-12 221 -25 132 -13 472 -4 571 14 14 3 45 7 70 10 25 2 56 7 70 10 14 3 39 8
55 10 17 3 37 8 45 10 17 5 64 15 95 20 64 11 320 97 420 141 312 137 550 285
785 488 91 79 287 289 364 389 48 62 90 117 95 123 13 16 99 149 134 209 51
86 143 276 182 375 50 127 95 260 88 260 -3 0 0 7 7 15 7 8 10 15 6 15 -3 0
-1 12 5 28 6 15 13 38 16 52 8 42 11 55 13 58 2 1 3 7 4 14 0 6 15 13 31 15
34 3 117 16 125 18 3 1 19 5 35 10 17 4 36 12 43 18 6 5 12 7 12 4 0 -8 106
50 140 75 53 41 124 115 162 171 21 31 36 57 33 57 -3 0 1 10 9 23 37 58 51
131 50 252 -1 105 -4 129 -28 190 -72 186 -221 329 -408 389 -82 27 -112 33
-175 35 -32 1 -32 1 -47 76 -10 48 -77 256 -105 325 -17 41 -31 81 -31 88 0 6
-4 12 -8 12 -5 0 -9 6 -9 13 0 29 -168 344 -220 413 -13 17 -23 36 -23 42 0 6
-4 12 -8 14 -5 2 -23 25 -42 53 -19 27 -40 56 -46 65 -7 8 -42 51 -77 95 -94
117 -286 309 -406 405 -24 19 -49 40 -56 47 -7 7 -15 9 -19 6 -3 -4 -6 -2 -6
3 0 21 -239 176 -403 263 -97 51 -297 140 -329 146 -9 2 -30 11 -47 19 -17 9
-34 16 -38 16 -5 0 -44 11 -88 24 -85 26 -223 60 -290 72 -22 4 -49 8 -60 10
-45 9 -142 21 -235 30 -59 5 -358 12 -363 8z m308 -228 c50 -3 99 -7 110 -10
11 -2 46 -7 79 -11 90 -11 180 -29 291 -58 22 -6 49 -12 60 -14 11 -2 27 -6
35 -10 8 -3 18 -7 23 -8 4 -2 8 -3 10 -5 1 -1 9 -3 17 -5 74 -15 395 -158 520
-231 207 -121 430 -298 584 -463 23 -24 58 -61 79 -83 20 -22 37 -42 37 -44 0
-3 22 -32 50 -65 84 -101 215 -308 289 -456 39 -78 71 -145 71 -150 0 -4 6
-20 14 -34 14 -27 50 -130 49 -139 -1 -3 3 -13 9 -23 11 -22 57 -176 58 -194
0 -10 -69 -13 -310 -13 -249 0 -310 3 -310 13 0 7 -12 42 -26 78 -14 35 -27
71 -29 79 -2 8 -17 43 -34 78 -17 34 -31 64 -31 66 0 9 -100 177 -140 236
-113 167 -327 393 -454 479 -12 8 -23 18 -26 21 -18 23 -217 142 -325 195
-224 109 -457 178 -680 199 -22 3 -42 5 -45 6 -3 1 -12 2 -21 1 -9 -1 -23 14
-34 39 l-18 40 -102 0 -102 0 -17 -39 c-13 -28 -23 -38 -39 -36 -12 0 -26 -1
-32 -4 -5 -3 -30 -7 -55 -8 -76 -5 -252 -41 -356 -74 -54 -16 -103 -31 -109
-33 -5 -2 -23 -8 -38 -14 -16 -7 -30 -12 -31 -12 -2 0 -39 -17 -82 -37 -44
-20 -82 -37 -86 -37 -3 -1 -10 -5 -15 -9 -4 -5 -21 -15 -38 -23 -33 -15 -45
-22 -128 -76 -32 -21 -60 -38 -63 -38 -3 0 -11 -6 -19 -12 -19 -19 -46 -41
-82 -66 -140 -99 -336 -314 -465 -512 -41 -61 -149 -260 -142 -260 3 0 -1 -10
-8 -22 -35 -64 -142 -394 -137 -425 1 -5 0 -10 -1 -13 -3 -8 -8 -36 -14 -79
l-5 -41 2457 0 c1351 0 2470 -3 2486 -6 104 -19 214 -120 232 -214 10 -53 5
-150 -8 -150 -4 0 -8 -6 -8 -13 0 -26 -62 -99 -108 -128 -26 -16 -50 -28 -53
-26 -3 1 -12 -3 -20 -9 -22 -16 -67 -18 -661 -18 l-557 0 -6 -25 c-3 -14 -8
-39 -11 -56 -12 -68 -66 -239 -101 -315 -8 -19 -22 -51 -31 -70 -9 -19 -20
-38 -25 -41 -5 -3 -9 -10 -8 -15 0 -8 -34 -69 -72 -129 -28 -46 -119 -164
-164 -214 -44 -50 -64 -70 -163 -161 -19 -18 -64 -53 -100 -78 -36 -26 -66
-50 -68 -54 -2 -5 -7 -8 -12 -8 -4 0 -38 -18 -75 -41 -75 -46 -179 -94 -283
-133 -175 -65 -361 -98 -567 -99 -82 0 -170 3 -195 6 -25 3 -63 8 -85 11 -56
7 -95 14 -132 25 -18 5 -33 8 -33 6 0 -1 -44 12 -97 31 -54 19 -105 36 -113
38 -47 12 -291 142 -298 158 -2 4 -10 8 -18 8 -8 0 -14 5 -14 12 0 6 -3 9 -6
5 -6 -6 -3 -8 -129 96 -117 97 -229 216 -315 334 -16 24 -30 46 -30 50 0 3 -6
14 -14 22 -16 18 -40 60 -84 147 -122 239 -185 502 -185 772 l1 92 -89 1 c-49
0 -102 1 -119 1 -16 0 -55 -1 -85 -1 l-55 -1 5 -157 c2 -87 7 -169 10 -183 4
-14 8 -41 11 -60 2 -19 6 -47 8 -62 7 -45 56 -242 66 -263 5 -11 20 -52 34
-92 41 -117 137 -307 209 -413 163 -239 372 -447 592 -588 44 -29 85 -55 90
-60 19 -15 235 -122 235 -116 0 4 6 2 13 -3 22 -19 245 -93 322 -109 11 -2 30
-6 43 -9 96 -21 142 -27 287 -40 152 -13 363 -4 475 19 14 2 42 7 62 10 32 5
62 11 148 31 8 2 42 13 75 25 33 11 61 21 62 21 5 -1 39 11 68 24 17 7 57 23
90 36 33 13 80 35 105 49 25 15 53 29 64 33 29 11 266 171 316 214 92 78 233
221 298 303 76 95 129 170 130 184 0 5 4 12 9 15 30 22 132 223 188 370 l40
106 308 1 c170 0 310 -2 312 -5 2 -3 -12 -55 -31 -116 -18 -60 -36 -119 -38
-130 -4 -18 -35 -98 -73 -185 -36 -84 -130 -262 -181 -345 -51 -82 -148 -223
-162 -235 -3 -3 -29 -34 -59 -70 -123 -150 -270 -290 -446 -424 -33 -25 -65
-49 -71 -54 -5 -5 -21 -15 -35 -22 -13 -7 -26 -16 -29 -19 -15 -18 -181 -111
-304 -171 -133 -64 -396 -162 -464 -173 -17 -3 -35 -7 -40 -10 -18 -12 -241
-54 -322 -62 -25 -2 -74 -7 -110 -10 -80 -8 -370 -12 -370 -5 0 3 -26 6 -58 7
-31 1 -73 4 -92 7 -19 2 -55 7 -80 10 -62 8 -101 14 -125 20 -177 40 -260 63
-385 108 -125 44 -151 56 -307 134 -282 142 -565 358 -765 584 -32 36 -64 72
-71 80 -27 29 -147 189 -147 195 0 3 -9 15 -20 27 -11 12 -20 28 -20 35 0 7
-4 13 -8 13 -5 0 -15 12 -23 28 -7 15 -23 43 -35 62 -44 74 -103 190 -96 190
4 0 2 4 -4 8 -16 11 -115 251 -138 337 -2 6 -5 17 -8 25 -17 47 -67 255 -74
304 -2 15 -6 35 -8 45 -3 9 -8 43 -11 76 -4 33 -10 89 -14 125 -19 156 -1 538
34 710 3 14 8 39 11 55 5 28 19 89 29 128 5 16 12 44 20 77 2 8 4 16 5 18 2 1
3 5 4 10 7 30 65 191 93 257 54 126 92 201 165 324 37 63 68 118 68 122 0 4 3
9 8 11 4 2 32 37 62 78 259 358 616 653 1017 841 116 55 279 119 304 119 8 0
20 5 27 12 7 7 12 9 12 5 0 -4 8 -3 18 2 11 6 30 12 43 15 13 3 62 15 109 26
85 20 109 25 165 34 127 21 173 27 270 32 61 4 111 7 112 8 3 3 169 -3 258 -8z
m-91 -910 c53 -3 107 -8 119 -11 12 -2 40 -7 62 -10 22 -3 58 -10 80 -16 22
-6 50 -13 63 -15 43 -8 207 -67 271 -96 62 -30 216 -114 236 -130 6 -4 46 -34
90 -67 115 -85 231 -198 325 -317 46 -59 70 -94 70 -103 0 -6 4 -11 9 -11 5 0
13 -9 16 -20 3 -11 12 -26 18 -32 13 -13 120 -228 131 -260 5 -17 -76 -18
-1609 -18 -1533 0 -1614 1 -1608 18 19 57 135 279 165 317 4 6 35 47 68 92
110 149 329 351 445 410 16 9 32 19 35 23 15 21 301 154 352 164 7 1 38 10 68
20 90 28 258 57 370 63 58 3 107 7 109 9 2 2 7 2 10 -1 4 -2 51 -6 105 -9z"/>
<path d="M2612 6201 c-4 -3 -7 -15 -6 -26 1 -11 5 -58 9 -105 4 -47 8 -94 10
-105 1 -11 3 -35 4 -52 1 -32 2 -33 41 -30 l40 2 -5 89 c-3 49 -8 93 -11 97
-3 5 -1 16 4 25 5 9 12 12 15 7 6 -9 15 -88 19 -170 2 -42 2 -43 39 -43 40 0
48 10 43 55 -2 17 -6 62 -9 100 -6 72 -25 115 -50 115 -7 0 -25 -4 -39 -10
-23 -8 -26 -7 -26 13 0 12 -4 27 -8 32 -8 11 -57 15 -70 6z"/>
<path d="M2473 6159 c-22 -6 -30 -14 -28 -27 1 -9 -2 -23 -8 -30 -7 -9 -5 -18
6 -30 8 -9 20 -51 27 -92 14 -90 31 -121 63 -116 12 3 32 5 45 5 27 1 28 11 2
41 -11 13 -20 26 -21 29 0 3 -2 15 -5 26 -2 11 -6 38 -9 60 -3 21 -8 41 -10
43 -2 3 2 11 10 18 15 15 10 48 -6 38 -5 -3 -9 -1 -9 3 0 26 -26 40 -57 32z"/>
<path d="M2911 6153 c-38 -19 -48 -52 -45 -152 2 -65 5 -77 26 -93 35 -27 106
-22 136 10 19 22 22 36 22 112 0 77 -3 89 -22 107 -30 28 -78 34 -117 16z m60
-65 c1 -18 0 -42 -1 -53 -1 -11 -3 -35 -4 -54 0 -19 -6 -36 -11 -38 -7 -2 -10
13 -9 39 2 24 3 64 3 91 1 52 20 66 22 15z"/>
<path d="M3138 6136 c-10 -7 -20 -31 -22 -54 -6 -42 -3 -46 62 -101 13 -11 22
-27 20 -36 -4 -19 -22 -21 -24 -2 -1 6 -2 17 -3 23 0 6 -17 11 -36 12 -37 1
-42 -7 -29 -54 7 -25 51 -51 82 -48 12 1 31 2 42 3 23 1 36 23 43 70 5 30 1
39 -31 68 -20 18 -40 33 -44 33 -4 0 -8 11 -8 25 0 31 17 33 22 3 2 -18 9 -23
37 -23 28 0 35 4 36 21 3 41 -40 74 -97 74 -18 0 -41 -7 -50 -14z"/>
<path d="M2230 6124 c-44 -19 -40 -14 -46 -67 -3 -31 0 -48 9 -54 11 -7 37
-80 52 -146 12 -55 16 -58 48 -51 52 11 50 -4 12 139 -17 63 -19 74 -15 90 6
23 -1 35 -20 35 -24 0 -26 9 -4 25 12 8 14 17 8 28 -8 14 -13 14 -44 1z"/>
<path d="M3373 6091 c-20 -19 -53 -131 -53 -179 0 -26 29 -57 68 -70 47 -16
90 2 108 44 18 43 19 40 -18 53 -32 11 -47 3 -48 -25 0 -6 -7 -18 -16 -25 -15
-12 -16 -9 -10 26 3 22 5 43 6 48 0 7 21 5 83 -9 21 -4 27 -2 28 13 1 10 3 32
5 50 5 48 -29 84 -86 90 -36 4 -49 1 -67 -16z m77 -48 c0 -10 -5 -25 -10 -33
-7 -11 -10 -7 -10 18 0 17 5 32 10 32 6 0 10 -8 10 -17z"/>
<path d="M3828 6022 c-16 -37 -16 -36 -34 -21 -19 15 -42 20 -65 13 -18 -5
-29 -27 -71 -139 l-29 -80 27 -21 c14 -12 34 -21 43 -19 9 1 25 -4 36 -10 46
-29 62 -27 75 7 6 18 16 42 20 53 14 34 69 189 72 203 2 7 -12 19 -30 27 -32
14 -33 14 -44 -13z m-54 -129 c-14 -38 -26 -75 -28 -82 -1 -8 -8 -17 -15 -19
-14 -5 -10 28 8 73 7 17 14 35 15 40 4 20 27 55 36 55 5 0 -2 -30 -16 -67z"/>
<path d="M2001 5984 c-20 -17 -31 -35 -31 -52 0 -37 47 -156 69 -176 30 -27
74 -23 121 12 32 24 39 58 21 104 -49 128 -57 137 -113 138 -25 0 -46 -8 -67
-26z m90 -107 c16 -43 24 -79 18 -82 -9 -6 -20 17 -40 78 -26 80 -28 88 -17
85 6 -2 24 -39 39 -81z"/>
<path d="M3951 5893 c-27 -23 -81 -130 -81 -160 0 -37 17 -61 58 -82 33 -17
41 -18 70 -6 41 18 61 57 39 79 -24 25 -56 20 -68 -11 -6 -17 -13 -23 -20 -16
-12 12 5 61 25 69 7 3 30 -4 51 -16 20 -12 39 -20 40 -18 20 24 36 76 31 104
-12 60 -99 94 -145 57z m73 -66 c-3 -9 -12 -17 -20 -17 -11 0 -11 5 -2 25 12
27 33 20 22 -8z"/>
<path d="M1723 5862 c-13 -2 -37 -17 -54 -34 -36 -36 -35 -52 13 -144 36 -70
69 -95 112 -87 64 13 98 70 76 128 -8 21 -14 25 -33 20 -35 -11 -54 -32 -39
-47 14 -14 16 -48 2 -48 -9 0 -46 69 -39 73 2 1 13 8 24 15 11 7 28 15 38 18
23 8 21 24 -8 65 -27 35 -54 47 -92 41z m27 -88 c0 -8 -3 -14 -8 -14 -11 0
-32 37 -25 44 9 8 33 -14 33 -30z"/>
<path d="M4158 5764 l-27 -28 32 -23 31 -23 21 27 c18 21 23 23 28 10 10 -26
-22 -42 -82 -42 -51 0 -57 -2 -77 -33 -13 -18 -21 -43 -18 -55 4 -24 30 -47
51 -47 8 0 26 -11 41 -25 15 -14 31 -25 37 -25 13 0 116 166 121 196 7 36 -42
84 -91 90 -34 5 -44 1 -67 -22z m24 -146 c-20 -35 -42 -48 -42 -25 0 13 44 57
56 57 2 0 -4 -14 -14 -32z"/>
<path d="M1501 5729 c-12 -11 -21 -24 -21 -29 0 -5 -6 -7 -12 -5 -7 2 -25 -6
-40 -18 l-27 -22 72 -103 c40 -56 75 -103 80 -104 4 -2 20 6 36 16 l29 20 -26
40 c-15 23 -38 57 -53 76 -28 38 -45 80 -32 80 4 0 33 -38 63 -84 30 -46 60
-87 66 -89 6 -3 24 5 40 18 l29 23 -35 48 c-18 27 -39 52 -44 56 -6 4 -8 8 -4
8 4 0 1 8 -7 18 -7 9 -22 27 -32 40 -24 30 -56 35 -82 11z"/>
<path d="M4415 5690 c-10 -11 -21 -17 -26 -15 -9 6 -23 -14 -24 -32 0 -13 -66
-109 -103 -149 -22 -25 -22 -44 0 -44 6 0 17 -8 24 -17 12 -17 15 -16 36 7 13
14 42 51 65 82 23 31 52 60 64 63 16 5 19 12 15 30 -6 25 8 43 19 25 5 -7 12
-5 20 7 12 16 10 20 -23 40 -45 28 -45 28 -67 3z"/>
<path d="M1263 5545 c-48 -48 -44 -78 17 -150 62 -74 88 -89 127 -74 15 5 39
22 51 37 30 34 26 86 -9 127 -86 101 -130 116 -186 60z m98 -86 c62 -70 67
-79 45 -79 -9 0 -16 3 -16 8 0 4 -15 23 -33 42 -18 19 -41 47 -51 63 -32 48
-1 29 55 -34z"/>
<path d="M4432 5488 c-18 -18 -14 -30 24 -62 35 -29 35 -29 55 -9 20 19 19 19
-15 51 -39 35 -46 38 -64 20z"/>
<path d="M4557 5377 c-48 -45 -87 -86 -87 -90 0 -4 10 -19 23 -33 l23 -24 52
48 c113 106 122 112 122 91 0 -12 -130 -139 -142 -139 -16 0 -7 -27 17 -50 28
-26 20 -30 116 60 62 59 79 69 79 51 0 -10 -43 -55 -83 -88 -12 -11 -33 -31
-47 -46 l-24 -28 29 -25 29 -24 30 29 c17 16 52 48 77 72 25 24 50 53 56 63
15 28 -2 60 -40 74 -17 6 -28 15 -24 18 11 11 -13 45 -40 55 -14 5 -23 12 -19
16 8 8 -33 53 -48 53 -6 0 -50 -38 -99 -83z"/>
<path d="M1038 5322 c-16 -9 -35 -32 -44 -50 -14 -29 -14 -38 -3 -59 15 -28
56 -52 81 -48 9 2 33 8 53 15 40 13 68 1 58 -25 -4 -12 -7 -12 -20 0 -19 20
-24 19 -53 -12 -18 -18 -21 -28 -12 -31 7 -2 18 -10 25 -17 22 -23 91 5 113
47 18 35 17 58 -4 84 -31 37 -53 43 -95 29 -20 -7 -37 -10 -37 -8 0 3 -6 0
-13 -6 -11 -8 -18 -6 -33 10 -19 21 -19 21 11 15 25 -5 35 -2 52 17 l20 24
-27 17 c-34 20 -38 20 -72 -2z"/>
<path d="M4855 5171 c-22 -17 -45 -35 -52 -41 -7 -5 -17 -10 -23 -10 -5 0 -10
-4 -10 -8 0 -4 -13 -16 -30 -25 -16 -10 -33 -29 -36 -42 -7 -28 11 -65 31 -65
8 0 15 -8 15 -17 1 -18 33 -63 45 -63 4 0 17 8 30 18 12 9 33 24 45 32 12 8
31 23 43 33 12 10 36 27 54 38 18 11 33 23 33 25 0 13 -32 64 -40 64 -5 0 -47
-27 -92 -60 -45 -33 -85 -60 -90 -60 -23 0 0 25 77 80 47 34 85 64 85 68 0 4
-10 20 -23 35 l-22 29 -40 -31z"/>
<path d="M903 5145 c-20 -9 -39 -28 -51 -53 -17 -34 -17 -44 -6 -70 7 -17 21
-35 32 -41 16 -8 21 -6 32 14 19 35 33 31 25 -6 -8 -34 10 -61 58 -86 25 -13
31 -13 53 2 15 9 24 25 24 41 0 14 4 23 8 20 12 -7 56 54 46 64 -15 13 -150
107 -170 118 -14 7 -28 6 -51 -3z m27 -78 c15 -12 25 -37 14 -37 -12 0 -53 38
-47 44 9 9 16 7 33 -7z m104 -76 c15 -16 16 -21 4 -21 -19 0 -44 21 -51 43 -5
14 -3 16 11 8 9 -5 26 -19 36 -30z"/>
<path d="M5048 4992 c-15 -2 -42 -18 -61 -35 -18 -18 -56 -45 -85 -62 -28 -16
-54 -38 -58 -48 -8 -27 24 -90 43 -83 8 3 17 6 19 6 2 0 4 8 4 19 0 23 129
104 146 90 12 -10 34 8 34 28 0 8 6 16 14 19 34 13 -16 71 -56 66z"/>
<path d="M758 4950 l-17 -29 50 -36 c27 -20 49 -38 49 -40 0 -2 -25 7 -55 21
-31 13 -57 24 -59 24 -2 0 -9 -14 -17 -31 -14 -34 -16 -30 41 -69 52 -35 53
-40 10 -24 -25 10 -49 20 -53 24 -15 13 -41 0 -53 -25 -13 -26 -18 -23 148
-89 l87 -34 21 35 c21 36 25 53 13 53 -10 0 -78 60 -69 60 4 0 25 -9 47 -20
45 -23 53 -21 75 23 20 37 34 22 -133 142 -35 25 -64 45 -65 45 -2 0 -11 -13
-20 -30z"/>
<path d="M5088 4814 c-4 -3 -12 -7 -20 -8 -25 -4 -113 -54 -131 -74 -18 -20
-19 -48 -2 -98 10 -30 61 -57 93 -49 46 11 52 22 34 56 -17 30 -28 31 -76 13
-27 -10 -8 22 20 35 38 17 43 15 66 -34 17 -34 25 -42 35 -33 7 6 13 7 13 4 0
-4 6 -1 14 6 8 7 23 21 35 30 40 34 20 117 -36 143 -35 17 -37 17 -45 9z m38
-89 c-22 -17 -36 -19 -36 -7 0 14 12 22 34 22 21 -1 21 -1 2 -15z"/>
<path d="M506 4568 c-13 -32 -6 -58 15 -58 4 0 20 -5 36 -12 15 -6 33 -12 38
-14 6 -1 52 -19 104 -39 51 -20 94 -35 96 -33 6 8 25 72 21 75 -4 4 -285 113
-292 113 -2 0 -10 -15 -18 -32z"/>
<path d="M5175 4590 c-27 -10 -43 -30 -48 -60 -12 -60 -20 -78 -38 -83 -12 -3
-19 0 -19 10 0 8 9 17 21 20 14 4 18 11 13 22 -3 9 -9 24 -11 34 -7 22 -40 14
-66 -15 -40 -47 13 -152 71 -142 56 10 76 34 85 101 3 23 24 53 38 53 15 0 10
-22 -7 -34 -13 -10 -14 -16 -3 -39 7 -15 18 -27 25 -27 16 0 44 27 45 46 1 8
2 20 3 27 1 6 0 17 -3 22 -3 6 -6 16 -7 23 -3 19 -44 52 -63 51 -9 0 -25 -4
-36 -9z"/>
<path d="M425 4328 c-2 -7 -6 -25 -9 -40 -4 -23 0 -27 30 -33 33 -6 34 -7 19
-28 -18 -26 -19 -61 -2 -75 11 -10 76 -30 152 -48 72 -17 111 6 101 58 -3 15
-1 28 5 30 5 2 12 19 15 39 6 34 5 36 -27 44 -19 4 -38 9 -44 11 -5 1 -19 5
-30 7 -11 3 -40 10 -65 17 -25 7 -54 14 -65 16 -11 2 -32 6 -48 10 -18 4 -29
1 -32 -8z m180 -113 c11 -3 32 -7 48 -11 42 -9 33 -26 -10 -20 -74 11 -133 30
-133 42 0 9 10 9 38 3 20 -5 46 -12 57 -14z"/>
<path d="M439 4057 c-21 -16 -28 -38 -19 -62 4 -11 4 -24 0 -30 -15 -20 -20
-75 -7 -76 6 0 21 -3 32 -5 11 -3 34 -7 50 -9 56 -6 120 -15 148 -20 23 -5 27
-2 27 19 0 13 3 31 6 39 6 16 -14 22 -86 31 -96 11 -131 19 -127 30 3 6 9 10
15 9 7 -2 33 -5 59 -8 81 -8 125 -15 132 -20 4 -2 8 1 9 8 1 7 4 27 6 45 5 25
2 32 -12 33 -9 1 -35 3 -57 5 -22 1 -40 3 -40 4 0 2 -9 4 -20 5 -11 1 -38 5
-60 8 -24 3 -46 1 -56 -6z"/>
<path d="M3605 3823 c-112 -25 -202 -98 -251 -202 -14 -30 -27 -71 -29 -92 -2
-21 -6 -44 -10 -51 -4 -7 17 12 46 43 171 177 463 181 637 9 17 -18 32 -36 32
-40 0 -4 6 -10 13 -13 21 -8 3 85 -28 148 -75 154 -244 236 -410 198z"/>
<path d="M2105 3819 c-22 -3 -53 -12 -70 -18 -16 -7 -32 -13 -35 -13 -3 0 -24
-14 -48 -30 -59 -40 -118 -119 -138 -181 -17 -58 -27 -107 -21 -107 2 0 29 24
59 53 63 59 88 80 88 72 0 -3 10 1 23 9 61 40 237 56 323 28 87 -27 214 -115
214 -148 0 -8 7 -14 15 -14 16 0 16 6 -1 85 -8 38 -49 111 -83 148 -82 90
-208 135 -326 116z"/>
<path d="M415 3785 c-35 -34 -35 -102 -1 -134 20 -19 37 -23 103 -25 117 -4
148 18 145 104 -2 43 -40 80 -83 80 -27 0 -29 -2 -29 -41 0 -29 4 -40 13 -36
6 2 23 0 37 -5 31 -12 12 -25 -33 -23 -32 2 -32 2 -32 53 l1 52 -49 0 c-38 0
-53 -5 -72 -25z m75 -66 c0 -5 -11 -9 -25 -9 -24 0 -32 10 -19 22 8 8 44 -3
44 -13z"/>
<path d="M617 3573 c-18 -18 -177 -31 -177 -14 0 6 -9 11 -20 11 -11 0 -20 -6
-20 -14 0 -9 -7 -12 -20 -9 -19 5 -27 -11 -20 -42 1 -5 3 -17 5 -25 1 -8 7
-15 13 -15 6 0 14 -3 18 -7 10 -11 52 -10 56 1 2 5 42 11 90 14 49 2 95 10
103 17 19 16 20 86 1 93 -7 3 -20 -1 -29 -10z"/>
<path d="M563 3413 c-7 -2 -10 -10 -8 -16 2 -7 6 -23 9 -38 5 -22 9 -25 41
-21 27 3 34 1 30 -10 -3 -8 -22 -15 -45 -16 -32 -2 -40 1 -41 15 -1 10 -2 23
-4 28 -1 6 -3 20 -3 33 -2 19 -6 22 -36 18 -68 -8 -96 -38 -96 -99 0 -23 9
-43 26 -62 24 -27 28 -27 92 -21 77 7 108 12 122 21 14 8 37 57 34 73 -1 6 -2
20 -3 30 -3 33 -36 64 -72 67 -19 1 -39 0 -46 -2z m-53 -102 c0 -11 -39 -21
-45 -11 -2 4 -2 10 2 14 10 9 43 7 43 -3z"/>
<path d="M1465 3362 c-2 -2 -2 -9 0 -15 3 -7 6 -23 9 -37 23 -133 124 -383
181 -450 7 -8 14 -20 16 -27 14 -44 281 -333 307 -333 4 0 18 -10 32 -23 14
-13 54 -40 90 -62 36 -21 72 -45 82 -53 9 -7 22 -15 30 -16 7 -2 42 -16 78
-33 66 -31 209 -82 245 -88 11 -1 31 -5 45 -9 120 -29 302 -43 435 -32 76 6
169 17 175 21 4 2 22 7 41 10 162 28 394 130 551 242 88 62 246 212 294 278
16 22 32 42 35 45 4 3 31 46 61 95 56 92 129 253 144 315 12 51 11 50 14 53 4
4 11 43 16 82 l5 40 -1441 0 c-793 0 -1443 -2 -1445 -3z m2415 -332 c0 -30
-179 -233 -255 -290 -210 -157 -446 -234 -715 -233 -99 0 -165 5 -235 18 -217
41 -445 163 -593 317 -48 50 -123 145 -142 179 -8 14 77 16 965 16 536 0 975
-3 975 -7z"/>
<path d="M460 3156 c-24 -11 -26 -24 -5 -32 8 -4 15 -10 15 -16 0 -5 -4 -6
-10 -3 -12 8 -12 -1 0 -46 l10 -36 119 28 c141 32 145 34 131 60 -6 11 -8 24
-5 29 11 17 -12 19 -84 4 -77 -16 -101 -14 -101 10 0 15 -37 17 -70 2z"/>
<path d="M719 3025 c-3 -2 -16 -6 -29 -8 -14 -3 -38 -10 -55 -17 -16 -7 -41
-14 -54 -16 -40 -8 -81 -34 -82 -52 -2 -30 2 -47 14 -57 7 -5 13 -25 14 -44 1
-19 7 -39 12 -44 6 -6 61 7 148 35 145 47 141 44 129 98 -2 10 -14 15 -33 14
-26 -1 -29 1 -25 25 3 24 -28 77 -39 66z m6 -94 c8 -14 -155 -65 -167 -53 -7
7 16 19 63 35 86 29 96 30 104 18z"/>
<path d="M4996 2766 c-3 -13 -8 -31 -12 -39 -4 -11 5 -18 29 -26 19 -7 84 -34
145 -61 117 -51 117 -51 139 2 11 25 10 27 -30 43 -23 9 -55 23 -72 30 -92 41
-175 75 -183 75 -5 0 -13 -11 -16 -24z"/>
<path d="M815 2702 c-16 -9 -36 -17 -44 -18 -8 -2 -17 -6 -20 -11 -3 -4 -44
-26 -91 -48 -47 -22 -88 -42 -92 -45 -4 -3 0 -20 9 -38 16 -33 23 -35 64 -18
12 5 18 0 22 -24 4 -19 16 -34 31 -41 21 -10 37 -5 119 35 111 54 129 79 89
122 -10 11 -22 31 -25 44 -3 14 -12 33 -19 42 -12 16 -15 16 -43 0z m39 -90
c4 -7 -141 -82 -158 -82 -34 0 103 86 141 89 6 1 14 -3 17 -7z"/>
<path d="M4896 2544 c-45 -44 -39 -67 18 -70 15 -1 40 -10 55 -21 14 -11 41
-26 58 -34 19 -8 32 -20 30 -29 -1 -10 7 -15 29 -16 17 -1 35 -4 41 -7 5 -3
17 10 26 29 17 35 17 35 -14 65 -16 16 -34 27 -40 24 -5 -4 -42 12 -83 34 -81
45 -97 48 -120 25z"/>
<path d="M4817 2421 c-9 -16 -17 -31 -17 -34 0 -3 38 -31 85 -62 47 -32 85
-64 85 -72 0 -17 1 -17 -104 54 -43 29 -81 53 -85 53 -4 0 -15 -14 -25 -30
-14 -25 -15 -34 -6 -45 7 -8 17 -15 22 -15 8 0 61 -34 83 -55 7 -5 27 -19 47
-29 47 -25 83 -16 97 24 10 31 10 31 36 14 26 -17 27 -17 50 12 13 16 21 32
19 35 -2 3 -36 28 -76 54 -40 27 -75 51 -78 54 -3 4 -17 12 -32 20 -16 8 -28
18 -28 23 0 4 -7 8 -15 8 -8 0 -15 5 -15 10 0 21 -26 9 -43 -19z"/>
<path d="M990 2410 c0 -5 -5 -10 -12 -10 -6 0 -26 -11 -44 -25 -18 -14 -35
-25 -37 -25 -9 0 -142 -93 -149 -104 -3 -6 5 -24 18 -39 l24 -28 130 86 c72
48 130 91 130 96 0 6 -7 21 -16 34 -16 25 -44 34 -44 15z"/>
<path d="M722 2379 c-29 -15 -41 -26 -38 -36 3 -8 6 -19 6 -24 0 -19 41 -8 70
19 27 23 29 29 18 45 -12 16 -15 16 -56 -4z"/>
<path d="M1154 2232 c-12 -2 -30 -12 -39 -22 -15 -16 -15 -22 -5 -35 17 -20
26 -19 53 8 12 12 25 22 29 22 3 0 9 3 13 7 10 10 -27 25 -51 20z"/>
<path d="M4675 2223 c-27 -20 -55 -68 -55 -93 0 -43 114 -150 160 -150 31 0
76 29 89 57 25 54 9 83 -85 162 -29 24 -91 38 -109 24z m77 -105 c35 -28 65
-53 67 -54 1 -2 1 -8 -1 -14 -2 -7 -29 8 -63 36 -61 49 -75 63 -75 77 0 13 8
8 72 -45z"/>
<path d="M1163 2128 c-13 -6 -23 -17 -23 -25 0 -7 -5 -13 -11 -13 -9 0 -8 -46
4 -105 5 -21 -9 -45 -24 -45 -13 0 -11 28 3 32 17 6 -23 58 -42 55 -25 -4 -40
-46 -27 -76 17 -38 58 -71 89 -71 23 0 65 30 69 49 6 26 5 60 -2 80 -13 32 -2
61 22 61 19 0 19 -1 3 -25 -16 -25 -16 -27 6 -50 l23 -25 24 28 c12 15 23 30
23 34 0 22 -36 77 -60 92 -32 18 -46 19 -77 4z"/>
<path d="M4509 2042 c-10 -14 -16 -29 -12 -35 3 -5 2 -7 -4 -4 -12 7 -66 -38
-61 -52 3 -10 104 -116 151 -160 25 -23 26 -23 51 -5 14 11 26 24 26 31 0 6
-34 47 -76 90 -41 42 -70 79 -63 82 6 2 46 -31 88 -73 l76 -76 29 25 c34 29
37 22 -71 131 -79 79 -102 87 -134 46z"/>
<path d="M1333 1981 c-11 -10 -38 -41 -59 -68 -21 -26 -45 -53 -53 -59 -35
-28 -2 -115 49 -130 49 -14 56 -13 85 11 l30 25 -30 25 -29 24 -22 -20 c-25
-24 -39 -13 -19 15 11 15 21 17 47 12 83 -18 84 -18 112 14 34 41 34 75 -1 97
-16 9 -40 30 -56 45 -15 15 -29 28 -30 28 -2 0 -12 -9 -24 -19z m67 -79 c0
-13 -46 -53 -53 -46 -8 9 25 53 41 54 6 0 12 -4 12 -8z"/>
<path d="M4325 1926 c-36 -16 -70 -53 -78 -84 -4 -17 7 -40 45 -89 86 -114
111 -143 124 -143 7 0 24 14 37 30 14 17 33 30 41 30 9 0 23 11 31 24 19 28
13 43 -39 111 -63 82 -91 93 -130 50 -19 -21 -25 -23 -35 -12 -12 16 -5 27 18
27 9 1 27 10 41 21 24 20 24 21 5 35 -23 17 -22 17 -60 0z m71 -138 c58 -68
75 -98 56 -98 -8 0 -92 104 -92 114 0 13 17 5 36 -16z"/>
<path d="M1472 1773 c-33 -38 -72 -81 -86 -97 l-24 -29 23 -19 c13 -10 25 -18
28 -18 3 0 24 19 48 43 l42 42 -27 -50 c-14 -27 -26 -53 -26 -56 0 -4 11 -14
25 -23 23 -15 25 -15 48 8 13 13 33 36 45 51 12 15 22 25 22 21 0 -11 -32 -70
-40 -76 -8 -5 -13 -26 -11 -47 0 -6 11 -15 24 -19 23 -7 34 -4 30 8 -2 5 2 8
7 8 6 0 10 4 10 8 0 4 22 50 50 101 52 99 52 100 0 130 -22 13 -26 11 -62 -27
-21 -23 -38 -40 -38 -38 0 1 11 24 25 51 l24 49 -31 23 c-18 13 -35 23 -39 23
-4 0 -34 -30 -67 -67z"/>
<path d="M4180 1765 c-7 -8 -19 -15 -26 -15 -27 0 -15 -25 83 -177 9 -14 11
-23 4 -27 -6 -4 -36 33 -67 81 -31 48 -58 90 -59 91 -6 6 -65 -32 -65 -41 0
-4 18 -35 40 -68 22 -33 40 -64 40 -67 0 -4 13 -22 29 -39 32 -35 59 -37 93
-6 19 17 21 17 44 -12 13 -17 24 -25 24 -20 0 6 14 18 31 28 l32 18 -20 22
c-11 12 -38 51 -60 87 -106 175 -102 170 -123 145z"/>
<path d="M3933 1622 c-24 -13 -30 -21 -23 -32 5 -8 15 -15 22 -15 20 0 89
-134 82 -159 -4 -17 1 -25 20 -34 14 -6 26 -16 26 -22 0 -5 15 -2 34 7 30 14
34 20 33 49 -2 29 -27 74 -27 49 0 -5 -18 27 -41 70 -23 44 -45 84 -50 89 -15
16 -43 15 -76 -2z"/>
<path d="M1840 1600 c-31 -31 -79 -141 -76 -172 4 -31 20 -50 61 -70 58 -28
101 3 145 109 31 74 29 96 -12 126 -41 31 -91 34 -118 7z m80 -46 c0 -4 -16
-40 -36 -82 -22 -45 -39 -71 -45 -65 -11 11 55 153 71 153 5 0 10 -3 10 -6z"/>
<path d="M2050 1525 c0 -9 -6 -31 -14 -48 -8 -18 -26 -66 -41 -107 -14 -41
-30 -83 -36 -92 -14 -27 -11 -35 21 -48 38 -16 60 -7 60 24 l0 24 35 -18 c50
-25 71 -16 91 39 10 25 24 62 32 81 8 19 16 51 19 71 3 29 0 37 -20 48 -14 7
-33 11 -43 9 -11 -2 -23 2 -29 9 -5 7 -25 16 -42 19 -27 5 -33 3 -33 -11z m70
-118 c-12 -31 -21 -60 -22 -64 0 -5 -5 -16 -10 -27 -8 -15 -12 -16 -19 -5 -4
7 -4 18 1 24 4 5 9 15 9 20 2 22 24 81 39 105 24 38 25 9 2 -53z"/>
<path d="M3714 1526 c-31 -14 -31 -15 -23 -58 12 -65 10 -67 -17 -15 -13 26
-26 47 -29 47 -3 0 -22 -7 -44 -16 -36 -14 -39 -18 -31 -40 10 -26 16 -49 35
-153 4 -19 11 -44 15 -57 8 -21 12 -22 40 -11 27 10 30 15 24 42 -15 76 -14
79 11 32 22 -41 30 -48 48 -43 12 3 26 6 30 6 11 0 -1 98 -15 123 -5 9 -6 17
-3 17 2 0 18 -27 35 -60 27 -54 33 -59 50 -50 11 6 20 7 20 3 0 -4 5 -2 11 4
8 8 -5 42 -47 127 -32 64 -63 116 -69 116 -5 -1 -24 -7 -41 -14z"/>
<path d="M3433 1434 c-2 -7 -1 -27 2 -46 4 -18 9 -48 12 -65 3 -18 8 -33 12
-33 10 0 11 -59 1 -65 -10 -6 -19 8 -24 37 -23 127 -31 161 -40 164 -6 2 -24
0 -41 -4 -35 -10 -35 -10 -3 -142 26 -110 63 -146 109 -104 17 15 19 14 25
-12 9 -38 20 -43 59 -31 l32 10 -17 71 c-10 39 -26 108 -36 154 l-18 82 -34
-2 c-19 -1 -36 -8 -39 -14z"/>
<path d="M2375 1426 c-2 -6 -6 -24 -9 -41 -3 -16 -7 -41 -11 -55 -3 -14 -7
-36 -10 -50 -18 -99 -25 -133 -30 -140 -5 -8 16 -19 53 -26 16 -3 25 2 31 18
5 13 6 30 3 38 -5 13 -3 13 11 1 26 -21 72 -23 89 -3 15 17 48 160 48 207 0
30 -32 49 -72 41 -18 -3 -27 -2 -23 4 3 6 0 10 -7 11 -7 1 -26 2 -41 3 -16 2
-30 -2 -32 -8z m91 -73 c-6 -67 -28 -143 -41 -143 -11 0 -12 6 -6 23 5 12 9
25 9 30 0 7 14 85 18 100 1 4 2 9 3 12 0 3 5 5 10 5 5 0 8 -12 7 -27z"/>
<path d="M3210 1398 c-14 -6 -44 -10 -67 -9 l-41 2 4 -38 c2 -21 6 -56 10 -78
3 -22 7 -52 8 -66 1 -15 10 -39 20 -54 17 -25 22 -27 73 -23 75 6 95 33 84
110 -1 3 -9 5 -18 3 -10 -2 -26 -4 -35 -4 -13 -1 -18 -9 -18 -30 0 -26 -19
-56 -21 -34 0 4 -2 15 -4 24 -4 21 3 29 47 59 34 22 38 30 38 68 0 29 -6 48
-20 62 -23 23 -25 23 -60 8z m1 -55 c5 -33 2 -57 -8 -60 -9 -3 -13 7 -13 31 0
20 5 36 10 36 6 0 11 -3 11 -7z"/>
<path d="M2715 1380 c-5 -8 -17 -179 -19 -260 l-1 -55 40 0 c33 0 40 4 41 20
8 115 16 227 20 258 2 20 1 37 -3 38 -44 5 -75 4 -78 -1z"/>
<path d="M2937 1368 c-2 -7 3 -21 11 -31 18 -20 26 -163 11 -173 -12 -7 -11
-44 1 -44 6 0 10 -9 10 -20 0 -17 7 -20 40 -20 36 0 40 2 40 26 0 14 4 23 10
19 13 -8 13 28 0 41 -6 6 -12 49 -14 97 -2 50 -9 93 -16 102 -15 18 -86 20
-93 3z"/>
<path d="M2587 1173 c-3 -4 -9 -25 -15 -45 -11 -41 -6 -50 36 -54 22 -3 23 0
20 49 -2 39 -7 53 -20 55 -9 2 -18 -1 -21 -5z"/>
</g>
</svg>
